<svg width="129" height="109" viewBox="0 0 129 109" fill="none" xmlns="http://www.w3.org/2000/svg">
<path d="M1.02618 13.4484V25.1717M1.02618 25.1717C0.967269 27.5364 1.02618 29.9102 1.02618 32.272V25.1717ZM1.02618 25.1717C1.04248 24.5176 1.0678 23.8641 1.10587 23.2119C1.3218 19.5124 1.74335 15.8333 1.74335 12.1245C1.74335 11.3865 1.70896 9.52217 2.46051 9.06313C3.22816 8.59425 4.44738 10.6764 4.81122 11.1317C7.81994 14.8966 10.7284 18.4803 12.7 22.9843C14.0804 26.1377 15.1402 29.3147 16.2659 32.5616C17.0578 34.8458 17.1624 33.0308 17.1624 31.548C17.1624 23.7794 17.0709 15.8252 19.3139 8.33914C19.3742 8.13776 21.5181 2.02552 21.8239 2.89892C24.5532 10.6923 28.0925 18.3765 31.3064 26.0044C31.9144 27.4472 32.4227 28.8918 32.94 30.369C33.2226 31.176 33.6571 32.3944 33.6571 30.9481M41.924 13.4882C41.924 18.5965 42.5601 25.4125 48.2741 27.9571C49.2426 28.3884 52.2575 28.2292 53.1248 27.6669C55.7185 25.9852 55.4179 22.0604 55.4179 19.4789C55.4179 15.5096 50.7087 14.1283 48.0757 12.203C47.2942 11.6316 45.2073 11.9957 44.3053 11.9957C43.2387 11.9957 40.0637 12.3688 41.1303 12.3688M57.2429 8.25424C57.2429 11.9716 57.4961 15.0953 58.8757 18.5431C59.3535 19.7372 59.8861 20.9697 60.2263 22.2052C60.658 23.7728 60.8714 26.2697 60.8714 22.9028M57.2429 6.44068C61.0847 7.20571 65.7758 5.43971 67.7866 9.9164C69.9008 14.6233 65.0514 18.8398 61.5726 21.0301C61.2386 21.2405 60.0568 21.8884 60.5703 21.8884C63.6344 21.8884 66.6589 22.2725 69.5506 23.4331C71.218 24.1024 72.8429 24.7483 74.4817 25.4499C75.0173 25.6792 75.6329 27.2464 75.2835 25.7503M78.0763 23.5847C78.2231 24.0179 79.6364 27.5461 78.6906 26.0008C78.5007 25.6906 78.1613 25.0184 78.099 24.6792C77.8245 23.1842 77.2037 21.6168 76.5292 20.2392C74.0532 15.1827 73.5714 10.2274 73.5714 4.62712C76.5794 4.03883 79.269 2.96661 82.1481 1.98921C82.7623 1.78069 84.1843 1.5454 84.4571 1M75.3857 15.5085H80.8286M77.2 26.3898C81.9568 25.4902 86.8393 22.7627 91.7143 22.7627M50.3403 48.1525C50.3403 51.8759 49.4181 56.387 50.5482 60.0173C50.8021 60.8329 53.2144 66.8519 53.6143 66.2453M42.7286 51.7193C45.9817 51.7193 49.3222 52.0744 52.5076 51.0619C54.5715 50.4058 56.9283 49.9661 59.0571 49.9661M62.9304 46.339C62.9304 50.123 62.304 54.1854 63.0557 57.9458C63.5216 60.2763 65.2003 62.3253 66.3143 64.4746M71.8554 46.339C71.8554 50.4416 71.4557 54.8857 72.2685 58.8655C72.5951 60.4645 72.8636 62.1659 73.1265 63.7874C73.1985 64.231 73.2159 67.2998 73.5714 65.9457M64.5 57.2203H71.7571M79.0961 65.5945C79.0961 61.5056 78.6604 57.2669 79.8001 53.337C80.4362 51.1435 80.3251 47.6556 81.3842 45.7159C81.4736 45.5521 81.6343 44.0451 81.9122 44.6812C83.6266 48.6061 86.318 52.0115 88.3266 55.7845C90.3682 59.6197 92.175 63.97 93.5286 68.1017M79.0143 59.0339C81.5848 58.0372 83.9788 56.5049 86.2714 55.4068M98.9715 64.946V43.2738C98.9715 42.1033 98.9575 42.3936 99.2963 43.3528C99.9526 45.2105 100.659 46.7922 101.642 48.4846C104.479 53.3666 106.527 58.5586 108.717 63.8012C109.016 64.5174 111.6 70.0828 111.64 67.3541C111.797 56.754 111.315 46.0775 111.315 35.4576M26.4 86.2373V106.186M24.5857 86.2373H35.4714M26.4 95.3051H33.6571M40.9143 108V86.2373C43.1679 86.2373 47.1117 86.049 46.99 89.6674C46.9192 91.7733 43.9867 94.1561 42.9395 95.822C42.9058 95.8758 41.5939 97.3674 41.8144 97.3917C44.162 97.6502 45.8516 99.2813 47.6651 100.903C49.605 102.637 51.3702 104.598 53.3283 106.314C54.0368 106.935 55.1978 108.563 55.4286 107.801M53.7246 88.0508C53.7246 90.8278 53.2838 93.9404 54.1644 96.6418C54.8001 98.5922 55.9118 100.667 56.3389 102.643C56.6984 104.307 57.2429 109.349 57.2429 107.658M71.7571 89.8644H60.8714V106.186H75.3857M59.0571 97.1186H64.5M77.3297 108C77.3297 105.729 76.8146 88.4771 77.8376 88.4771C78.1206 88.4771 78.4343 89.1749 78.5407 89.3723C78.9662 90.1614 79.6467 90.8264 80.1815 91.5036C83.8531 96.153 87.3903 100.956 90.7876 105.847C91.7459 107.227 91.9844 107.865 91.3931 106.252C90.2301 103.08 90.5337 98.7963 90.2212 95.4678C90.0274 93.4039 90.144 89.9284 89.2836 88.0508M97.1571 104.373C96.3765 104.068 96.5704 102.887 96.4264 102.224C95.4052 97.5199 95.3429 92.8105 95.3429 88.0508C99.1065 88.0508 101.963 88.7274 105.341 90.6255C107.543 91.8625 108.455 97.3432 107.87 99.7422C107.184 102.553 102.373 104.243 100.245 105.145C99.3428 105.527 97.8516 106.727 97.0935 105.904M118.116 86.2373C115.879 86.2373 113.137 86.386 112.076 89.1146C111.816 89.7841 111.473 90.8687 111.815 91.6082C112.208 92.4567 114.281 91.9842 114.909 91.9918C116.891 92.016 118.769 92.5986 120.632 93.3346C122.676 94.142 126.224 94.678 127.659 96.7873C128.237 97.6372 127.942 100.54 127.771 101.498C126.967 105.993 119.119 106.186 116.102 106.186" stroke="black" stroke-width="0.5" stroke-linecap="round"/>
</svg>
